<svg width="539" height="103" viewBox="0 0 539 103" fill="none" xmlns="http://www.w3.org/2000/svg">
<g clip-path="url(#clip0_1_2)">
<g filter="url(#filter0_i_1_2)">
<rect x="1.5" y="1.5" width="536" height="100" rx="13.5" stroke="black" stroke-width="3"/>
</g>
<path d="M145.556 34.0381L150.161 33.791L160.38 62.3613L164.199 63.2373V66H150.857V63.2373L155.124 62.3613L153.372 57.2627H141.423L139.626 62.3613L143.939 63.2373V66H131.293V63.2373L135.067 62.3613L145.556 34.0381ZM147.488 39.7432L142.659 53.5791H152.137L147.488 39.7432ZM176.548 44.8867C177.506 44.0632 178.756 43.2396 180.299 42.416C181.856 41.5775 183.458 41.1582 185.105 41.1582C187.561 41.1582 189.403 41.8919 190.631 43.3594C191.859 44.8118 192.472 46.8408 192.472 49.4463V62.3164L195.909 63.4619V66H184.881V63.4619L187.868 62.3164V49.8955C187.868 48.2334 187.546 47.013 186.902 46.2344C186.258 45.4557 185.203 45.0664 183.735 45.0664C182.567 45.0664 181.489 45.3434 180.501 45.8975C179.527 46.4515 178.711 47.0505 178.053 47.6943C177.394 48.3382 177.064 48.6901 177.064 48.75V62.3164L180.052 63.4619V66H168.552V63.4619L172.46 62.3164V45.291L168.552 44.3701V41.8545L176.143 41.6299L176.548 44.8867ZM229.034 65.7754L221.218 66L220.859 63.3721C218.807 65.4235 216.396 66.4492 213.626 66.4492C210.407 66.4492 207.988 65.3861 206.371 63.2598C204.769 61.1335 203.968 58.2135 203.968 54.5C203.968 50.4271 204.994 47.1852 207.045 44.7744C209.112 42.3636 212.151 41.1582 216.164 41.1582C217.662 41.1582 219.114 41.4053 220.522 41.8994V34.2627L216.613 33.3418V30.8037L225.126 30.5791V62.3164L229.034 63.2373V65.7754ZM220.522 45.7627C220.432 45.7028 220.2 45.6055 219.825 45.4707C219.466 45.321 218.927 45.1787 218.208 45.0439C217.489 44.9092 216.651 44.8418 215.693 44.8418C211.096 44.8418 208.797 47.9115 208.797 54.0508C208.797 56.7461 209.261 58.8799 210.19 60.4521C211.133 62.0094 212.585 62.7881 214.547 62.7881C215.715 62.7881 216.741 62.5335 217.624 62.0244C218.523 61.5153 219.226 60.9613 219.736 60.3623C220.26 59.7633 220.522 59.4189 220.522 59.3291V45.7627ZM244.64 44.9766C245.509 44.0332 246.534 43.1647 247.717 42.3711C248.915 41.5625 250.211 41.1582 251.603 41.1582C252.277 41.1582 252.913 41.2106 253.512 41.3154C254.126 41.4202 254.628 41.5326 255.017 41.6523C255.407 41.7572 255.646 41.8245 255.736 41.8545L255.511 48.5254H252.502L251.828 45.0664C250.3 45.0664 248.983 45.4333 247.875 46.167C246.767 46.9007 245.861 47.7318 245.157 48.6602V62.3164L249.761 63.4619V66H236.644V63.4619L240.552 62.3164V45.291L236.644 44.3701V41.8545L244.236 41.6299L244.64 44.9766ZM267.456 54.5C267.456 57.0156 268.07 59.0296 269.298 60.542C270.526 62.0394 272.135 62.7881 274.127 62.7881C275.475 62.7881 276.725 62.6009 277.878 62.2266C279.031 61.8522 279.982 61.4479 280.73 61.0137C281.479 60.5645 281.854 60.3099 281.854 60.25L283.471 62.6309C283.471 62.6908 282.969 63.0651 281.966 63.7539C280.978 64.4277 279.75 65.0492 278.282 65.6182C276.83 66.1722 275.287 66.4492 273.655 66.4492C270.032 66.4492 267.284 65.3561 265.412 63.1699C263.555 60.9837 262.627 57.944 262.627 54.0508C262.627 51.625 263.099 49.4313 264.042 47.4697C265 45.5081 266.333 43.9658 268.04 42.8428C269.762 41.7197 271.716 41.1582 273.902 41.1582C280.341 41.1582 283.561 44.7594 283.561 51.9619C283.561 52.4561 283.531 52.9502 283.471 53.4443C283.411 53.9385 283.366 54.2604 283.336 54.4102L267.456 54.5ZM278.687 51.041C278.687 49.1693 278.282 47.6569 277.474 46.5039C276.68 45.3359 275.407 44.752 273.655 44.752C271.873 44.752 270.458 45.3509 269.41 46.5488C268.377 47.7467 267.785 49.2441 267.636 51.041H278.687ZM303.344 60.9463L308.398 45.0664L305.186 44.3701V41.8545L316.079 41.6299V44.3701L313.092 44.8418L306.579 63.0576L306.152 64.1582C305.134 66.8835 304.183 69.1146 303.299 70.8516C302.416 72.5885 301.218 74.056 299.705 75.2539C298.208 76.4518 296.359 77.0508 294.158 77.0508C293.663 77.0508 293.094 77.0133 292.451 76.9385C291.807 76.8786 291.387 76.8337 291.193 76.8037L291.62 73.5918H293.911C295.408 73.5918 296.718 72.9629 297.841 71.7051C298.964 70.4473 300.095 68.5755 301.233 66.0898L292.99 45.0664L290.227 44.3701V41.8545L301.053 41.6299V44.3701L297.819 44.8418L303.344 60.9463ZM342.103 37.4746L338.195 36.5537V34.0381L346.932 33.791H352.682C357.219 33.791 360.768 35.1536 363.328 37.8789C365.889 40.5892 367.169 44.445 367.169 49.4463C367.169 52.7855 366.548 55.7054 365.305 58.2061C364.077 60.7067 362.31 62.6309 360.004 63.9785C357.698 65.3262 355.033 66 352.008 66H338.195V63.2373L342.103 62.3164V37.4746ZM352.233 62.3164C355.242 62.3164 357.601 61.2682 359.308 59.1719C361.03 57.0755 361.891 53.9085 361.891 49.6709C361.891 45.5381 361.06 42.4759 359.398 40.4844C357.751 38.4779 355.437 37.4746 352.457 37.4746H346.932V62.3164H352.233ZM380.304 37.4746L376.396 36.5537V34.0381L385.133 33.791H390.883C395.421 33.791 398.969 35.1536 401.53 37.8789C404.09 40.5892 405.371 44.445 405.371 49.4463C405.371 52.7855 404.749 55.7054 403.506 58.2061C402.279 60.7067 400.512 62.6309 398.206 63.9785C395.9 65.3262 393.234 66 390.21 66H376.396V63.2373L380.304 62.3164V37.4746ZM390.434 62.3164C393.444 62.3164 395.802 61.2682 397.509 59.1719C399.231 57.0755 400.092 53.9085 400.092 49.6709C400.092 45.5381 399.261 42.4759 397.599 40.4844C395.952 38.4779 393.639 37.4746 390.659 37.4746H385.133V62.3164H390.434Z" fill="black"/>
</g>
<defs>
<filter id="filter0_i_1_2" x="0" y="0" width="541" height="109" filterUnits="userSpaceOnUse" color-interpolation-filters="sRGB">
<feFlood flood-opacity="0" result="BackgroundImageFix"/>
<feBlend mode="normal" in="SourceGraphic" in2="BackgroundImageFix" result="shape"/>
<feColorMatrix in="SourceAlpha" type="matrix" values="0 0 0 0 0 0 0 0 0 0 0 0 0 0 0 0 0 0 127 0" result="hardAlpha"/>
<feMorphology radius="6" operator="erode" in="SourceAlpha" result="effect1_innerShadow_1_2"/>
<feOffset dx="2" dy="6"/>
<feGaussianBlur stdDeviation="3"/>
<feComposite in2="hardAlpha" operator="arithmetic" k2="-1" k3="1"/>
<feColorMatrix type="matrix" values="0 0 0 0 0 0 0 0 0 0 0 0 0 0 0 0 0 0 0.5 0"/>
<feBlend mode="normal" in2="shape" result="effect1_innerShadow_1_2"/>
</filter>
<clipPath id="clip0_1_2">
<rect width="539" height="103" fill="white"/>
</clipPath>
</defs>
</svg>
